<mxfile host="app.diagrams.net" agent="Mozilla/5.0 (Windows NT 10.0; Win64; x64) AppleWebKit/537.36 (KHTML, like Gecko) Chrome/130.0.0.0 Safari/537.36" version="24.8.3">
  <diagram name="Page-1" id="TSpq--sT16rCI08qDOwt">
    <mxGraphModel dx="1434" dy="738" grid="1" gridSize="10" guides="1" tooltips="1" connect="1" arrows="1" fold="1" page="1" pageScale="1" pageWidth="827" pageHeight="1169" math="0" shadow="0">
      <root>
        <mxCell id="0" />
        <mxCell id="1" parent="0" />
        <mxCell id="p3_ux7moi3LxHsP-3Oeh-1" value="Strings DB" style="swimlane;whiteSpace=wrap;html=1;" vertex="1" parent="1">
          <mxGeometry x="347" y="420" width="200" height="80" as="geometry" />
        </mxCell>
        <mxCell id="p3_ux7moi3LxHsP-3Oeh-2" value="FIGMA" style="rounded=0;whiteSpace=wrap;html=1;" vertex="1" parent="1">
          <mxGeometry x="30" y="108" width="120" height="60" as="geometry" />
        </mxCell>
        <mxCell id="p3_ux7moi3LxHsP-3Oeh-3" value="REPO" style="rounded=0;whiteSpace=wrap;html=1;" vertex="1" parent="1">
          <mxGeometry x="30" y="201" width="120" height="60" as="geometry" />
        </mxCell>
        <mxCell id="p3_ux7moi3LxHsP-3Oeh-4" value="APP" style="rounded=0;whiteSpace=wrap;html=1;" vertex="1" parent="1">
          <mxGeometry x="30" y="392" width="120" height="60" as="geometry" />
        </mxCell>
        <mxCell id="p3_ux7moi3LxHsP-3Oeh-5" value="&lt;div&gt;COMMAND CENTER&lt;/div&gt;&lt;div&gt;STRING MANAGER&lt;/div&gt;" style="shape=internalStorage;whiteSpace=wrap;html=1;backgroundOutline=1;" vertex="1" parent="1">
          <mxGeometry x="313" y="200" width="280" height="150" as="geometry" />
        </mxCell>
        <mxCell id="p3_ux7moi3LxHsP-3Oeh-6" value="" style="endArrow=none;html=1;rounded=0;entryX=0;entryY=0.5;entryDx=0;entryDy=0;exitX=1;exitY=0.5;exitDx=0;exitDy=0;" edge="1" parent="1" source="p3_ux7moi3LxHsP-3Oeh-2" target="p3_ux7moi3LxHsP-3Oeh-5">
          <mxGeometry width="50" height="50" relative="1" as="geometry">
            <mxPoint x="150" y="180" as="sourcePoint" />
            <mxPoint x="200" y="130" as="targetPoint" />
          </mxGeometry>
        </mxCell>
        <mxCell id="p3_ux7moi3LxHsP-3Oeh-7" value="" style="endArrow=none;html=1;rounded=0;exitX=1;exitY=0.5;exitDx=0;exitDy=0;entryX=0;entryY=0.5;entryDx=0;entryDy=0;" edge="1" parent="1" source="p3_ux7moi3LxHsP-3Oeh-3" target="p3_ux7moi3LxHsP-3Oeh-5">
          <mxGeometry width="50" height="50" relative="1" as="geometry">
            <mxPoint x="180" y="340" as="sourcePoint" />
            <mxPoint x="300" y="280" as="targetPoint" />
          </mxGeometry>
        </mxCell>
        <mxCell id="p3_ux7moi3LxHsP-3Oeh-8" value="" style="endArrow=none;html=1;rounded=0;exitX=1;exitY=0.5;exitDx=0;exitDy=0;entryX=0;entryY=0.5;entryDx=0;entryDy=0;" edge="1" parent="1" source="p3_ux7moi3LxHsP-3Oeh-4" target="p3_ux7moi3LxHsP-3Oeh-5">
          <mxGeometry width="50" height="50" relative="1" as="geometry">
            <mxPoint x="170" y="510" as="sourcePoint" />
            <mxPoint x="220" y="460" as="targetPoint" />
          </mxGeometry>
        </mxCell>
        <mxCell id="p3_ux7moi3LxHsP-3Oeh-9" value="" style="endArrow=none;html=1;rounded=0;exitX=0.46;exitY=0.05;exitDx=0;exitDy=0;exitPerimeter=0;entryX=0.454;entryY=1;entryDx=0;entryDy=0;entryPerimeter=0;" edge="1" parent="1" source="p3_ux7moi3LxHsP-3Oeh-1" target="p3_ux7moi3LxHsP-3Oeh-5">
          <mxGeometry width="50" height="50" relative="1" as="geometry">
            <mxPoint x="390" y="410" as="sourcePoint" />
            <mxPoint x="490" y="380" as="targetPoint" />
          </mxGeometry>
        </mxCell>
        <mxCell id="p3_ux7moi3LxHsP-3Oeh-11" value="TRANSLATION&lt;div&gt;TMS/MT/LLM&lt;/div&gt;" style="rounded=0;whiteSpace=wrap;html=1;" vertex="1" parent="1">
          <mxGeometry x="700" y="246" width="120" height="60" as="geometry" />
        </mxCell>
        <mxCell id="p3_ux7moi3LxHsP-3Oeh-12" value="" style="endArrow=none;html=1;rounded=0;entryX=0;entryY=0.5;entryDx=0;entryDy=0;exitX=1;exitY=0.5;exitDx=0;exitDy=0;" edge="1" parent="1" source="p3_ux7moi3LxHsP-3Oeh-5" target="p3_ux7moi3LxHsP-3Oeh-11">
          <mxGeometry width="50" height="50" relative="1" as="geometry">
            <mxPoint x="640" y="390" as="sourcePoint" />
            <mxPoint x="690" y="340" as="targetPoint" />
          </mxGeometry>
        </mxCell>
        <mxCell id="p3_ux7moi3LxHsP-3Oeh-13" value="InCONTEXT" style="rounded=0;whiteSpace=wrap;html=1;" vertex="1" parent="1">
          <mxGeometry x="30" y="294" width="120" height="60" as="geometry" />
        </mxCell>
        <mxCell id="p3_ux7moi3LxHsP-3Oeh-14" value="" style="endArrow=none;html=1;rounded=0;exitX=1.008;exitY=0.383;exitDx=0;exitDy=0;exitPerimeter=0;entryX=0;entryY=0.5;entryDx=0;entryDy=0;" edge="1" parent="1" source="p3_ux7moi3LxHsP-3Oeh-13" target="p3_ux7moi3LxHsP-3Oeh-5">
          <mxGeometry width="50" height="50" relative="1" as="geometry">
            <mxPoint x="390" y="310" as="sourcePoint" />
            <mxPoint x="260" y="300" as="targetPoint" />
          </mxGeometry>
        </mxCell>
      </root>
    </mxGraphModel>
  </diagram>
</mxfile>
